<svg width="41" height="37" viewBox="0 0 41 37" fill="none" xmlns="http://www.w3.org/2000/svg">
<g id="&#240;&#159;&#166;&#134; icon &#34;Alternate Map Marked&#34;">
<path id="Vector" d="M20.2991 0.602539C15.3942 0.602539 11.4182 4.564 11.4182 9.45105C11.4182 13.402 17.2225 20.603 19.4462 23.2168C19.8966 23.7463 20.7022 23.7463 21.1519 23.2168C23.3757 20.603 29.1799 13.402 29.1799 9.45105C29.1799 4.564 25.204 0.602539 20.2991 0.602539ZM20.2991 12.4006C18.6639 12.4006 17.3388 11.0803 17.3388 9.45105C17.3388 7.8218 18.6639 6.50155 20.2991 6.50155C21.9343 6.50155 23.2594 7.8218 23.2594 9.45105C23.2594 11.0803 21.9343 12.4006 20.2991 12.4006ZM1.41812 15.7679C0.999573 15.9347 0.640782 16.2226 0.388015 16.5945C0.135249 16.9664 0.000100241 17.4052 0 17.8543L0 35.4334C0 36.2283 0.80562 36.7719 1.5464 36.4769L11.2773 32.0639V15.6956C10.6542 14.5734 10.1446 13.4806 9.7795 12.4357L1.41812 15.7679ZM20.2991 25.8608C19.3074 25.8608 18.3693 25.4268 17.7257 24.6698C16.3401 23.0405 14.8663 21.1852 13.5327 19.282V32.0632L27.0654 36.5577V19.2827C25.7319 21.1852 24.2588 23.0412 22.8724 24.6705C22.2289 25.4268 21.2908 25.8608 20.2991 25.8608ZM39.0518 11.9202L29.3209 16.3332V36.5584L39.18 32.6292C39.5986 32.4625 39.9575 32.1746 40.2103 31.8027C40.463 31.4308 40.5982 30.992 40.5982 30.5428V12.9638C40.5982 12.1688 39.7925 11.6253 39.0518 11.9202Z" fill="white"/>
</g>
</svg>
