<svg width="35" height="35" viewBox="0 0 35 35" fill="none" xmlns="http://www.w3.org/2000/svg">
<g id="Header">
<g id="Group 20">
<g id="Group 19">
<g id="&#240;&#159;&#166;&#134; icon &#34;Hanging Weight&#34;">
<path id="Vector" d="M34.8825 30.4786L29.8902 10.5084C29.6304 9.47001 28.7663 8.75017 27.7799 8.75017H23.6613C23.9053 8.06315 24.0632 7.33374 24.0632 6.56263C24.0632 2.93814 21.1251 0 17.5007 0C13.8763 0 10.9382 2.93814 10.9382 6.56263C10.9382 7.33374 11.0954 8.06315 11.3401 8.75017H7.22145C6.23502 8.75017 5.37027 9.47069 5.11119 10.5084L0.117521 30.4786C-0.451914 32.7557 1.11967 35 3.28325 35H31.7174C33.8803 35 35.4519 32.7557 34.8825 30.4786ZM17.5 8.74949C16.2941 8.74949 15.3125 7.76783 15.3125 6.56194C15.3125 5.35606 16.2941 4.3744 17.5 4.3744C18.7059 4.3744 19.6875 5.35606 19.6875 6.56194C19.6875 7.76783 18.7059 8.74949 17.5 8.74949Z" fill="white"/>
</g>
</g>
</g>
</g>
</svg>
