<svg width="50" height="55" viewBox="0 0 50 55" fill="none" xmlns="http://www.w3.org/2000/svg">
<g id="Group 59">
<rect id="Rectangle 17" x="0.5" y="0.5" width="49" height="54" fill="#6D7DB8" stroke="white"/>
<g id="&#240;&#159;&#166;&#134; icon &#34;arrow ios back&#34;">
<path id="Vector" d="M28.6353 42.7423C28.3386 42.7433 28.0454 42.6778 27.7772 42.5506C27.5091 42.4234 27.2729 42.2377 27.0859 42.0073L17.4914 30.0887C17.1993 29.7332 17.0396 29.2874 17.0396 28.8273C17.0396 28.3672 17.1993 27.9213 17.4914 27.5659L27.4236 15.6473C27.7608 15.2416 28.2453 14.9865 28.7706 14.9381C29.2958 14.8897 29.8188 15.0519 30.2245 15.3891C30.6301 15.7262 30.8853 16.2107 30.9337 16.736C30.9821 17.2613 30.8199 17.7843 30.4827 18.1899L21.6034 28.8372L30.1848 39.4845C30.4277 39.7761 30.582 40.1311 30.6294 40.5077C30.6768 40.8842 30.6154 41.2664 30.4524 41.6091C30.2894 41.9519 30.0317 42.2407 29.7096 42.4415C29.3876 42.6423 29.0148 42.7467 28.6353 42.7423Z" fill="white"/>
</g>
</g>
</svg>
