<svg width="50" height="51" viewBox="0 0 50 51" fill="none" xmlns="http://www.w3.org/2000/svg">
<g id="&#240;&#159;&#166;&#134; icon &#34;Instagram Square&#34;">
<path id="Vector" d="M25 19.727C23.8227 19.7275 22.6719 20.0757 21.6932 20.7277C20.7145 21.3798 19.9519 22.3063 19.5016 23.3902C19.0514 24.474 18.9338 25.6666 19.1638 26.817C19.3937 27.9675 19.9609 29.0241 20.7935 29.8534C21.6262 30.6827 22.6869 31.2474 23.8417 31.4761C24.9964 31.7048 26.1932 31.5872 27.2809 31.1382C28.3686 30.6892 29.2982 29.929 29.9522 28.9536C30.6063 27.9782 30.9554 26.8315 30.9554 25.6585C30.9542 24.0853 30.3263 22.577 29.2096 21.4648C28.093 20.3527 26.5789 19.7276 25 19.727ZM38.9185 15.1678C38.6155 14.4026 38.1578 13.7075 37.574 13.1258C36.9902 12.5441 36.2926 12.0881 35.5246 11.7862C33.1808 10.8643 27.6004 11.0712 25 11.0712C22.3996 11.0712 16.8248 10.8566 14.4743 11.7862C13.7063 12.0881 13.0087 12.5441 12.4249 13.1258C11.8411 13.7075 11.3834 14.4026 11.0804 15.1678C10.1562 17.503 10.3627 23.0686 10.3627 25.6574C10.3627 28.2461 10.1562 33.8051 11.0848 36.1481C11.3879 36.9133 11.8455 37.6083 12.4294 38.19C13.0132 38.7717 13.7108 39.2277 14.4788 39.5297C16.8225 40.4515 22.4029 40.2447 25.0045 40.2447C27.606 40.2447 33.1786 40.4593 35.529 39.5297C36.2971 39.2277 36.9946 38.7717 37.5785 38.19C38.1623 37.6083 38.6199 36.9133 38.923 36.1481C39.8549 33.8128 39.6406 28.2472 39.6406 25.6585C39.6406 23.0697 39.8549 17.5119 38.923 15.1689L38.9185 15.1678ZM25 34.777C23.1899 34.777 21.4205 34.2422 19.9155 33.2402C18.4105 32.2383 17.2375 30.8142 16.5449 29.148C15.8522 27.4818 15.6709 25.6484 16.0241 23.8796C16.3772 22.1108 17.2488 20.486 18.5287 19.2108C19.8086 17.9355 21.4393 17.0671 23.2146 16.7152C24.9898 16.3634 26.83 16.544 28.5022 17.2341C30.1745 17.9243 31.6038 19.093 32.6094 20.5925C33.615 22.0921 34.1518 23.855 34.1518 25.6585C34.1533 26.8564 33.9175 28.0427 33.4581 29.1497C32.9987 30.2567 32.3247 31.2625 31.4746 32.1095C30.6245 32.9565 29.615 33.6281 28.504 34.0858C27.393 34.5436 26.2022 34.7784 25 34.777ZM34.529 18.2859C34.1065 18.2861 33.6934 18.1615 33.3419 17.9277C32.9905 17.694 32.7165 17.3617 32.5547 16.9728C32.3928 16.5839 32.3504 16.1559 32.4327 15.7429C32.5149 15.33 32.7183 14.9507 33.017 14.6529C33.3157 14.3551 33.6963 14.1523 34.1107 14.0701C34.5252 13.9879 34.9547 14.03 35.3451 14.191C35.7355 14.3521 36.0692 14.6249 36.304 14.9749C36.5387 15.3249 36.6641 15.7365 36.6641 16.1575C36.6652 16.4371 36.611 16.7141 36.5045 16.9728C36.3979 17.2314 36.2412 17.4665 36.0433 17.6647C35.8453 17.8629 35.6101 18.0201 35.351 18.1275C35.0919 18.2348 34.8141 18.2902 34.5335 18.2903L34.529 18.2859ZM44.6429 0.749512H5.35714C3.93634 0.749512 2.57373 1.31187 1.56907 2.31287C0.564412 3.31387 0 4.67152 0 6.08715L0 45.2298C0 46.6455 0.564412 48.0031 1.56907 49.0041C2.57373 50.0051 3.93634 50.5675 5.35714 50.5675H44.6429C46.0637 50.5675 47.4263 50.0051 48.4309 49.0041C49.4356 48.0031 50 46.6455 50 45.2298V6.08715C50 4.67152 49.4356 3.31387 48.4309 2.31287C47.4263 1.31187 46.0637 0.749512 44.6429 0.749512ZM42.7321 32.9977C42.5882 35.8478 41.9353 38.3732 39.8471 40.4482C37.7589 42.5232 35.2266 43.1871 32.3694 43.3227C29.4219 43.4884 20.5848 43.4884 17.6373 43.3227C14.7768 43.1793 12.2511 42.5276 10.1596 40.4482C8.06808 38.3687 7.41071 35.8423 7.27455 32.9977C7.10826 30.0598 7.10826 21.2538 7.27455 18.3192C7.41853 15.4692 8.06362 12.9438 10.1596 10.8688C12.2556 8.79378 14.7879 8.13769 17.6373 8.00203C20.5848 7.83634 29.4219 7.83634 32.3694 8.00203C35.2299 8.14548 37.7634 8.79711 39.8471 10.8766C41.9308 12.956 42.596 15.4825 42.7321 18.3326C42.8984 21.2594 42.8984 30.0576 42.7321 32.9977Z" fill="white"/>
</g>
</svg>
