<svg width="50" height="51" viewBox="0 0 50 51" fill="none" xmlns="http://www.w3.org/2000/svg">
<g id="&#240;&#159;&#166;&#134; icon &#34;Google Plus Square&#34;">
<path id="Vector" d="M44.6429 0.749512H5.35714C2.39955 0.749512 0 3.14033 0 6.08715V45.2298C0 48.1766 2.39955 50.5675 5.35714 50.5675H44.6429C47.6004 50.5675 50 48.1766 50 45.2298V6.08715C50 3.14033 47.6004 0.749512 44.6429 0.749512ZM18.3036 36.7786C12.1317 36.7786 7.14286 31.8079 7.14286 25.6585C7.14286 19.5091 12.1317 14.5384 18.3036 14.5384C21.317 14.5384 23.8281 15.6282 25.7812 17.4519L22.7567 20.3542C21.9308 19.5647 20.4911 18.6417 18.3147 18.6417C14.5089 18.6417 11.4062 21.7776 11.4062 25.6696C11.4062 29.5505 14.5089 32.6975 18.3147 32.6975C22.7344 32.6975 24.3862 29.5283 24.654 27.9047H18.3036V24.0794H28.8393C28.9509 24.6354 29.0179 25.2026 29.0179 25.9254C29.0179 32.2749 24.7433 36.7786 18.3036 36.7786ZM42.8571 27.6823H39.6205V30.9072H36.3616V27.6823H33.125V24.4353H36.3616V21.2105H39.6205V24.4353H42.8571V27.6823Z" fill="white"/>
</g>
</svg>
