<svg width="56" height="43" viewBox="0 0 56 43" fill="none" xmlns="http://www.w3.org/2000/svg">
<g id="&#240;&#159;&#166;&#134; icon &#34;Envelope&#34;">
<path id="Vector" d="M54.9391 14.0253C55.3656 13.6875 56 14.0035 56 14.5375V36.8232C56 39.7111 53.6484 42.0541 50.75 42.0541H5.25C2.35156 42.0541 0 39.7111 0 36.8232V14.5484C0 14.0035 0.623437 13.6984 1.06094 14.0362C3.51094 15.9324 6.75938 18.3408 17.9156 26.4159C20.2234 28.0942 24.1172 31.625 28 31.6032C31.9047 31.6359 35.875 28.0288 38.0953 26.4159C49.2516 18.3408 52.4891 15.9215 54.9391 14.0253ZM28 28.1051C30.5375 28.1487 34.1906 24.923 36.0281 23.5934C50.5422 13.099 51.6469 12.1836 54.9937 9.56814C55.6281 9.07774 56 8.3149 56 7.50848V5.43792C56 2.55003 53.6484 0.207031 50.75 0.207031H5.25C2.35156 0.207031 0 2.55003 0 5.43792V7.50848C0 8.3149 0.371875 9.06684 1.00625 9.56814C4.35313 12.1727 5.45781 13.099 19.9719 23.5934C21.8094 24.923 25.4625 28.1487 28 28.1051Z" fill="black"/>
</g>
</svg>
