<svg width="50" height="51" viewBox="0 0 50 51" fill="none" xmlns="http://www.w3.org/2000/svg">
<g id="&#240;&#159;&#166;&#134; icon &#34;YouTube Square&#34;">
<path id="Vector" d="M20.8482 19.6648L31.4732 25.6807L20.8482 31.6967V19.6648ZM50 6.08715V45.2298C50 48.1766 47.6004 50.5675 44.6429 50.5675H5.35714C2.39955 50.5675 0 48.1766 0 45.2298V6.08715C0 3.14033 2.39955 0.749512 5.35714 0.749512H44.6429C47.6004 0.749512 50 3.14033 50 6.08715ZM45.3125 25.6918C45.3125 25.6918 45.3125 19.0643 44.4643 15.8839C43.9955 14.127 42.6228 12.7481 40.8705 12.281C37.7121 11.4248 25 11.4248 25 11.4248C25 11.4248 12.2879 11.4248 9.12946 12.281C7.37723 12.7481 6.00446 14.127 5.53571 15.8839C4.6875 19.0532 4.6875 25.6918 4.6875 25.6918C4.6875 25.6918 4.6875 32.3194 5.53571 35.4998C6.00446 37.2567 7.37723 38.58 9.12946 39.0471C12.2879 39.8922 25 39.8922 25 39.8922C25 39.8922 37.7121 39.8922 40.8705 39.0359C42.6228 38.5689 43.9955 37.2456 44.4643 35.4886C45.3125 32.3194 45.3125 25.6918 45.3125 25.6918Z" fill="white"/>
</g>
</svg>
