<svg width="41" height="41" viewBox="0 0 41 41" fill="none" xmlns="http://www.w3.org/2000/svg">
<g id="&#240;&#159;&#166;&#134; icon &#34;Alternate Phone&#34;">
<path id="Vector" d="M39.6757 28.7106L30.7947 24.9183C30.4153 24.7572 29.9937 24.7233 29.5933 24.8216C29.1928 24.9199 28.8353 25.1452 28.5745 25.4634L24.6415 30.2512C18.469 27.3515 13.5015 22.4022 10.5912 16.2521L15.3965 12.3334C15.7166 12.0741 15.9431 11.7178 16.0419 11.3187C16.1406 10.9195 16.1061 10.4992 15.9436 10.1213L12.1375 1.27261C11.9592 0.865265 11.6438 0.532679 11.2457 0.332204C10.8476 0.131729 10.3918 0.0759307 9.95688 0.17443L1.71023 2.07057C1.2909 2.16705 0.916766 2.4023 0.648901 2.73792C0.381036 3.07354 0.235255 3.48972 0.235352 3.91852C0.235352 24.1835 16.7207 40.5773 37.0281 40.5773C37.4586 40.5776 37.8765 40.4324 38.2135 40.1655C38.5505 39.8986 38.7867 39.5257 38.8836 39.1078L40.7866 30.8912C40.8849 30.4557 40.8277 29.9997 40.6249 29.6017C40.4222 29.2037 40.0865 28.8886 39.6757 28.7106Z" fill="white"/>
</g>
</svg>
