<svg width="50" height="51" viewBox="0 0 50 51" fill="none" xmlns="http://www.w3.org/2000/svg">
<g id="&#240;&#159;&#166;&#134; icon &#34;Twitter Square&#34;">
<path id="Vector" d="M44.6429 0.749512H5.35714C2.39955 0.749512 0 3.14033 0 6.08715V45.2298C0 48.1766 2.39955 50.5675 5.35714 50.5675H44.6429C47.6004 50.5675 50 48.1766 50 45.2298V6.08715C50 3.14033 47.6004 0.749512 44.6429 0.749512ZM39.1853 18.4082C39.2076 18.7196 39.2076 19.042 39.2076 19.3534C39.2076 28.9945 31.8415 40.1035 18.3817 40.1035C14.2299 40.1035 10.3795 38.9025 7.14286 36.8342C7.73437 36.9009 8.30357 36.9231 8.90625 36.9231C12.3326 36.9231 15.4799 35.7666 17.9911 33.8095C14.7768 33.7428 12.0759 31.6411 11.1496 28.7499C12.2768 28.9167 13.2924 28.9167 14.4531 28.6164C11.1049 27.9381 8.59375 25.0024 8.59375 21.4551V21.3661C9.56473 21.911 10.7031 22.2446 11.8973 22.2891C10.8933 21.6237 10.0703 20.721 9.50164 19.6616C8.93299 18.6022 8.63642 17.419 8.63839 16.2175C8.63839 14.8609 8.99554 13.6154 9.6317 12.5368C13.2366 16.9626 18.6496 19.8538 24.721 20.1652C23.683 15.2167 27.3996 11.2024 31.8638 11.2024C33.9732 11.2024 35.8705 12.0809 37.2098 13.5042C38.8616 13.1929 40.4464 12.5813 41.8527 11.7473C41.3058 13.4375 40.1563 14.8609 38.6384 15.7616C40.1116 15.6059 41.5402 15.1945 42.8571 14.6274C41.8638 16.0841 40.6138 17.374 39.1853 18.4082Z" fill="white"/>
</g>
</svg>
