<svg width="50" height="51" viewBox="0 0 50 51" fill="none" xmlns="http://www.w3.org/2000/svg">
<g id="&#240;&#159;&#166;&#134; icon &#34;Facebook Square&#34;">
<path id="Vector" d="M44.6429 0.749512H5.35714C3.93634 0.749512 2.57373 1.31187 1.56907 2.31287C0.564412 3.31387 0 4.67152 0 6.08715L0 45.2298C0 46.6455 0.564412 48.0031 1.56907 49.0041C2.57373 50.0051 3.93634 50.5675 5.35714 50.5675H20.6752V33.6305H13.644V25.6585H20.6752V19.5825C20.6752 12.6713 24.8047 8.85382 31.1295 8.85382C34.1585 8.85382 37.3259 9.39204 37.3259 9.39204V16.1753H33.8359C30.3973 16.1753 29.3248 18.3014 29.3248 20.4821V25.6585H37.0011L35.7734 33.6305H29.3248V50.5675H44.6429C46.0637 50.5675 47.4263 50.0051 48.4309 49.0041C49.4356 48.0031 50 46.6455 50 45.2298V6.08715C50 4.67152 49.4356 3.31387 48.4309 2.31287C47.4263 1.31187 46.0637 0.749512 44.6429 0.749512Z" fill="white"/>
</g>
</svg>
