<svg width="46" height="35" viewBox="0 0 46 35" fill="none" xmlns="http://www.w3.org/2000/svg">
<g id="&#240;&#159;&#166;&#134; icon &#34;Envelope&#34;">
<path id="Vector" d="M44.6085 11.5749C44.9548 11.3006 45.4699 11.5572 45.4699 11.9908V30.086C45.4699 32.4308 43.5606 34.3333 41.2071 34.3333H4.26281C1.90938 34.3333 0 32.4308 0 30.086V11.9996C0 11.5572 0.506208 11.3094 0.861442 11.5837C2.85075 13.1234 5.48836 15.0789 14.5468 21.6357C16.4207 22.9983 19.5823 25.8652 22.735 25.8475C25.9054 25.8741 29.1292 22.9452 30.932 21.6357C39.9905 15.0789 42.6192 13.1145 44.6085 11.5749ZM22.735 23.0072C24.7953 23.0426 27.7615 20.4234 29.2535 19.3439C41.0384 10.8228 41.9354 10.0795 44.6529 7.95585C45.168 7.55767 45.4699 6.93827 45.4699 6.28348V4.60227C45.4699 2.25741 43.5606 0.35498 41.2071 0.35498H4.26281C1.90938 0.35498 0 2.25741 0 4.60227V6.28348C0 6.93827 0.301949 7.54882 0.817038 7.95585C3.53458 10.0706 4.43154 10.8228 16.2164 19.3439C17.7084 20.4234 20.6746 23.0426 22.735 23.0072Z" fill="white"/>
</g>
</svg>
