<svg width="127" height="22" viewBox="0 0 127 22" fill="none" xmlns="http://www.w3.org/2000/svg">
<g id="Group 5">
<path id="Star 1" d="M11 0L13.4697 7.60081H21.4616L14.996 12.2984L17.4656 19.8992L11 15.2016L4.53436 19.8992L7.00402 12.2984L0.538379 7.60081H8.53035L11 0Z" fill="white"/>
<path id="Star 2" d="M37 0L39.4697 7.60081H47.4616L40.996 12.2984L43.4656 19.8992L37 15.2016L30.5344 19.8992L33.004 12.2984L26.5384 7.60081H34.5303L37 0Z" fill="white"/>
<path id="Star 3" d="M63.5 0L65.8574 7.60081H73.4861L67.3143 12.2984L69.6717 19.8992L63.5 15.2016L57.3283 19.8992L59.6857 12.2984L53.5139 7.60081H61.1426L63.5 0Z" fill="white"/>
<path id="Star 4" d="M90 0L92.4697 7.60081H100.462L93.996 12.2984L96.4656 19.8992L90 15.2016L83.5344 19.8992L86.004 12.2984L79.5384 7.60081H87.5303L90 0Z" fill="white"/>
<path id="Star 5" d="M116 0L118.47 7.60081H126.462L119.996 12.2984L122.466 19.8992L116 15.2016L109.534 19.8992L112.004 12.2984L105.538 7.60081H113.53L116 0Z" fill="white"/>
</g>
</svg>
